<?xml version="1.0" encoding="utf-8"?>
<!-- Generator: Adobe Illustrator 22.1.0, SVG Export Plug-In . SVG Version: 6.00 Build 0)  -->
<svg version="1.1" id="Capa_1" xmlns="http://www.w3.org/2000/svg" xmlns:xlink="http://www.w3.org/1999/xlink" x="0px" y="0px"
	 viewBox="0 0 50 50" style="enable-background:new 0 0 50 50;" xml:space="preserve">
<style type="text/css">
	.st0{fill:#595959;}
</style>
<g>
	<path class="st0" d="M10.5,42.2h23.6v-6.3h9.7V12.2H10.5V42.2z M12.7,14.4h28.9v19.3H32V40H12.7V14.4z"/>
	<path class="st0" d="M10.5,7.8h33.3V10H10.5V7.8z"/>
	<path class="st0" d="M6.2,12.2h2.2v30H6.2V12.2z"/>
	<path class="st0" d="M25.6,21.9l-2.1,3.6l-2.2-3.6h-1.9v6.7h2.1v-2.9l1.5,2.3h1l1.5-2.4l0,3.1h2.1l0-6.7H25.6z"/>
	<path class="st0" d="M31,23.9c0.6-0.5,0.8-0.9,0.8-1.3c0-0.8-0.7-1.3-1.8-1.3c-1,0-1.6,0.4-1.9,0.9l1.1,0.5
		c0.1-0.2,0.3-0.4,0.6-0.4c0.3,0,0.4,0.1,0.4,0.3c0,0.1-0.1,0.3-0.3,0.5l-1.5,1.3v0.9h3.5v-1.1h-1.4L31,23.9z"/>
</g>
</svg>
